<?xml version="1.0" encoding="utf-8"?>
<!-- Svg Vector Icons : http://www.onlinewebfonts.com/icon -->
<!--<div>Icon made from <a href="http://www.onlinewebfonts.com/icon">Icon Fonts</a> is licensed by CC BY 3.0</div>-->
<!DOCTYPE svg PUBLIC "-//W3C//DTD SVG 1.1//EN" "http://www.w3.org/Graphics/SVG/1.1/DTD/svg11.dtd">
<svg version="1.1" xmlns="http://www.w3.org/2000/svg" xmlns:xlink="http://www.w3.org/1999/xlink" x="0px" y="0px" viewBox="0 0 1000 1000" enable-background="new 0 0 1000 1000" xml:space="preserve">
<metadata> Svg Vector Icons : http://www.onlinewebfonts.com/icon </metadata>
<g><g transform="translate(0.000000,512.000000) scale(0.100000,-0.100000)"><path d="M3849.4,4987.5c-398.2-105.3-687.3-480.5-687.3-896v-120.6l-884.5-5.8c-855.7-5.7-890.2-7.7-987.8-47.9c-155.1-63.2-260.4-160.8-333.1-306.3l-63.2-128.3l-5.7-407.8l-5.7-407.8H5000h4117.9l-5.7,407.8l-5.8,407.8l-63.2,128.3c-72.8,145.5-178.1,243.1-333.1,306.3c-97.6,40.2-132.1,42.1-985.9,47.9l-886.4,5.8v101.5c0,434.6-281.4,807.9-687.3,915.1c-111,28.7-243.1,32.5-1150.6,32.5S3960.5,5016.2,3849.4,4987.5z M6074,4365.3c107.2-70.8,151.2-155.1,151.2-283.3V3969H5000H3774.8v107.2c0,134,51.7,235.5,151.2,291c67,40.2,86.2,42.1,1075.9,42.1h1007L6074,4365.3z"/><path d="M1247.7,2196.2c0-28.7,47.9-384.8,105.3-790.7c57.4-405.9,273.8-1939.3,478.6-3407.7c206.8-1468.4,382.9-2684.1,394.4-2703.2c9.6-19.2,34.5-44.1,55.5-55.5c23-13.4,930.4-19.2,2728.1-19.2h2691.7l46,47.9c26.8,24.9,47.9,53.6,47.9,63.2c0,7.7,216.3,1548.8,478.6,3421.1c264.2,1872.3,478.6,3424.9,478.6,3449.8v44H5000H1247.7V2196.2z M3206.2,1089.7c72.8-30.6,137.8-97.6,164.6-170.4c11.5-28.7,93.8-894,183.8-1924c235.5-2684.1,216.3-2387.3,164.6-2483c-70.8-135.9-266.1-204.8-390.5-141.7c-72.8,36.4-145.5,116.8-164.6,178.1c-11.5,32.5-90,851.9-174.2,1820.6c-84.2,968.7-166.6,1914.5-183.8,2104c-17.2,187.6-24.9,371.4-17.2,405.9C2821.4,1057.1,3033.9,1164.3,3206.2,1089.7z M5176.2,1068.6c28.7-21.1,68.9-68.9,90-109.1c40.2-68.9,40.2-72.7,36.4-2249.4l-5.8-2182.5l-51.7-67c-135.9-180-409.7-157-515,42.1c-34.5,63.2-36.4,160.8-36.4,2230.3V896.3l40.2,67c40.2,65.1,88.1,109.1,151.2,137.8C4940.7,1128,5124.4,1106.9,5176.2,1068.6z M7037,1089.7c78.5-32.5,162.7-139.8,176.1-225.9c11.5-78.5-350.3-4232.8-375.2-4315.1c-38.3-113-160.8-199.1-287.2-199.1c-158.9,0-306.3,139.8-306.3,291c0,97.6,363.8,4230.9,375.2,4271.1c17.2,55.5,107.2,151.3,170.4,178.1C6864.7,1122.2,6958.5,1122.2,7037,1089.7z"/></g></g>
</svg>