<?xml version="1.0" standalone="no"?>
<!DOCTYPE svg PUBLIC "-//W3C//DTD SVG 20010904//EN"
 "http://www.w3.org/TR/2001/REC-SVG-20010904/DTD/svg10.dtd">
<svg version="1.0" xmlns="http://www.w3.org/2000/svg"
 width="500.000000pt" height="500.000000pt" viewBox="0 0 500.000000 500.000000"
 preserveAspectRatio="xMidYMid meet">
<metadata>
Created by potrace 1.16, written by Peter Selinger 2001-2019
</metadata>
<g transform="translate(0.000000,500.000000) scale(0.100000,-0.100000)"
fill="#000000" stroke="none">
<path d="M2955 2838 c-51 -52 -101 -174 -113 -274 l-7 -66 -50 -20 c-27 -10
-62 -33 -77 -51 l-27 -32 -33 32 c-95 92 -257 96 -314 8 l-16 -25 -33 29 c-76
67 -187 79 -263 28 -47 -31 -74 -84 -80 -157 -3 -41 -11 -62 -30 -82 -32 -35
-69 -37 -77 -5 -6 23 9 124 39 262 40 183 1 315 -92 315 -73 0 -162 -89 -196
-196 -10 -31 -19 -54 -22 -52 -2 2 1 30 6 62 14 88 -8 168 -51 181 -78 25
-169 -59 -241 -225 l-28 -65 7 55 c14 97 9 167 -14 198 -23 31 -69 40 -114 22
-41 -17 -89 -94 -89 -142 0 -21 3 -38 6 -38 3 0 26 18 51 40 57 50 83 53 83 8
0 -66 -32 -317 -51 -392 -10 -43 -19 -89 -19 -102 0 -33 38 -56 75 -46 24 7
32 16 39 48 53 236 171 521 223 541 58 23 56 -194 -6 -457 -17 -71 -14 -107
10 -124 28 -19 77 -3 84 27 3 12 21 95 40 185 42 194 75 284 123 335 94 98
114 2 55 -263 -41 -184 -35 -239 31 -280 31 -19 93 -14 139 13 l42 24 34 -24
c23 -15 48 -23 78 -23 37 0 50 6 87 40 61 56 83 148 57 238 -10 35 -10 35 42
0 25 -18 27 -24 27 -94 0 -41 6 -89 14 -108 44 -105 174 -102 243 6 31 49 42
137 24 189 -6 18 -9 34 -7 37 3 2 24 -14 47 -35 40 -38 42 -41 31 -73 -15 -40
-15 -100 -2 -134 27 -73 105 -89 178 -36 23 17 44 30 46 30 3 0 18 -13 34 -30
40 -39 77 -39 148 1 30 17 56 30 57 28 64 -99 109 -129 189 -129 57 0 148 45
195 98 103 115 173 344 173 566 0 79 -9 96 -50 96 -54 0 -62 -17 -76 -156 -16
-155 -62 -325 -111 -413 -28 -51 -43 -67 -77 -82 -85 -37 -148 8 -161 116 -9
67 18 222 62 359 31 97 33 110 20 124 -18 18 -72 19 -93 1 -38 -32 -99 -314
-93 -434 3 -47 1 -50 -35 -77 -102 -73 -127 12 -51 170 81 170 120 340 95 416
-22 69 -74 74 -135 14z m71 -119 c-6 -59 -67 -261 -87 -289 -8 -11 -9 6 -5 65
9 127 36 255 58 277 30 30 41 13 34 -53z m-197 -470 c-23 -56 -90 -74 -104
-28 -13 39 49 179 87 196 23 10 23 10 26 -65 2 -42 -2 -88 -9 -103z m-688 154
c19 -22 16 -131 -5 -171 -39 -75 -106 -55 -106 32 0 113 66 195 111 139z m349
-2 c17 -33 12 -121 -11 -168 -20 -42 -28 -47 -59 -43 -54 6 -55 149 -2 213 20
23 59 22 72 -2z"/>
<path d="M3815 2502 c-71 -25 -111 -96 -131 -236 -4 -28 -20 -73 -37 -100 -64
-109 -90 -178 -91 -241 0 -105 46 -155 113 -121 57 30 111 161 111 269 l0 49
48 -7 c52 -9 76 -9 110 0 19 5 22 12 22 50 0 25 -1 45 -2 45 -2 0 -21 -7 -43
-15 -22 -8 -53 -14 -70 -14 l-30 0 39 24 c22 13 55 43 73 66 30 38 33 48 33
109 0 59 -3 69 -27 92 -29 28 -84 41 -118 30z"/>
<path d="M3594 1652 c-45 -30 -50 -132 -10 -223 42 -94 48 -99 125 -99 l66 0
-6 78 c-7 99 -32 174 -74 217 -32 34 -74 46 -101 27z"/>
<path d="M3193 1390 c-70 -42 -36 -57 132 -58 l140 0 -38 33 c-58 50 -173 63
-234 25z"/>
</g>
</svg>
