<?xml version="1.0" standalone="no"?>
<!DOCTYPE svg PUBLIC "-//W3C//DTD SVG 20010904//EN"
 "http://www.w3.org/TR/2001/REC-SVG-20010904/DTD/svg10.dtd">
<svg version="1.0" xmlns="http://www.w3.org/2000/svg"
 width="500.000000pt" height="500.000000pt" viewBox="0 0 500.000000 500.000000"
 preserveAspectRatio="xMidYMid meet">

<g transform="translate(0.000000,500.000000) scale(0.100000,-0.100000)"
fill="#000000" stroke="none">
<path d="M963 4780 c-262 -35 -509 -221 -627 -471 -77 -163 -71 42 -74 -2206
l-2 -2013 1905 0 1905 0 -2 1907 -3 1908 -1410 1 c-775 1 -1502 2 -1614 3
l-203 1 4 64 c7 113 84 203 193 226 34 7 557 9 1667 8 l1618 -3 27 -28 28 -27
2 -2028 2 -2027 288 0 287 0 -2 2065 c-2 2273 3 2112 -63 2247 -85 175 -216
287 -414 354 l-70 24 -1690 1 c-929 1 -1718 -2 -1752 -6z m1577 -1911 c123
-248 227 -452 230 -454 3 -2 228 -36 500 -75 272 -39 496 -73 498 -74 1 -2
-93 -97 -210 -212 -117 -115 -280 -275 -363 -356 l-149 -147 73 -428 c98 -574
96 -562 90 -568 -5 -4 -423 210 -734 378 -82 44 -157 80 -165 79 -8 0 -96 -44
-195 -97 -359 -192 -697 -367 -702 -362 -2 3 34 227 81 499 l86 493 -362 357
c-200 196 -361 359 -358 362 3 2 214 34 470 70 256 36 480 69 497 73 32 8 40
23 255 460 123 249 225 452 228 453 3 0 106 -203 230 -451z"/>
</g>
</svg>
